<svg width="24" height="25" viewBox="0 0 24 25" fill="none" xmlns="http://www.w3.org/2000/svg">
<path d="M10.243 16.4131L6 12.1691L7.414 10.7551L10.243 13.5831L15.899 7.92615L17.314 9.34115L10.243 16.4131Z" fill="#047681"/>
<path fill-rule="evenodd" clip-rule="evenodd" d="M1 12.0991C1 6.02412 5.925 1.09912 12 1.09912C18.075 1.09912 23 6.02412 23 12.0991C23 18.1741 18.075 23.0991 12 23.0991C5.925 23.0991 1 18.1741 1 12.0991ZM12 21.0991C10.8181 21.0991 9.64778 20.8663 8.55585 20.414C7.46392 19.9617 6.47177 19.2988 5.63604 18.4631C4.80031 17.6274 4.13738 16.6352 3.68508 15.5433C3.23279 14.4513 3 13.281 3 12.0991C3 10.9172 3.23279 9.7469 3.68508 8.65497C4.13738 7.56304 4.80031 6.57089 5.63604 5.73516C6.47177 4.89943 7.46392 4.2365 8.55585 3.78421C9.64778 3.33191 10.8181 3.09912 12 3.09912C14.3869 3.09912 16.6761 4.04733 18.364 5.73516C20.0518 7.42299 21 9.71217 21 12.0991C21 14.4861 20.0518 16.7753 18.364 18.4631C16.6761 20.1509 14.3869 21.0991 12 21.0991Z" fill="#047681"/>
</svg>
