<svg width="31" height="22" viewBox="0 0 31 22" fill="none" xmlns="http://www.w3.org/2000/svg">
<path d="M22.2776 0.325806L21.1174 0.338245L21.1445 2.85063C18.1943 3.70689 14.1492 4.1228 10.4147 4.36998C12.6768 10.5758 16.8186 15.57 20.5883 20.9428C21.9237 19.676 23.8825 18.8814 25.9676 18.6219C24.6269 17.4547 23.6064 16.8194 22.1756 14.0819C24.191 16.4722 25.5645 17.2058 27.1786 18.0784C27.389 17.2344 27.7547 16.4904 28.3853 15.9724C28.9439 15.5135 29.676 15.2858 30.5464 15.3057C27.5252 11.4538 23.9934 7.76125 22.3073 3.09607L22.2776 0.325806ZM9.52197 1.0783L8.36194 1.09402C8.36194 1.09402 8.37805 2.27609 8.39803 3.47685C8.40809 4.0773 8.41898 4.68232 8.42955 5.14806C8.43342 5.31796 8.43709 5.44325 8.44077 5.56971C6.225 10.9666 3.98358 15.9462 0.453735 20.6158C2.62162 20.5264 4.72865 20.5382 6.80572 20.6131C8.24064 16.5773 8.31044 11.9213 9.10199 7.59322C9.83785 12.0123 9.783 16.5809 11.2601 20.8596C14.0291 21.0582 16.7831 21.3235 19.5971 21.5638C16.009 16.4623 11.9779 11.5712 9.59925 5.49147C9.59603 5.37661 9.5928 5.27258 9.58945 5.1217C9.57901 4.66047 9.56799 4.05674 9.558 3.45752C9.53802 2.25908 9.52197 1.0783 9.52197 1.0783Z" fill="#0098A7"/>
</svg>
