<svg width="30" height="25" viewBox="0 0 30 25" fill="none" xmlns="http://www.w3.org/2000/svg">
<path d="M4.87501 14.0182V17.7648C4.87501 18.7382 5.42501 19.6448 6.30501 20.1115L13.18 23.7515C14.005 24.1915 14.995 24.1915 15.82 23.7515L22.695 20.1115C23.575 19.6448 24.125 18.7382 24.125 17.7648V14.0182L15.82 18.4182C14.995 18.8582 14.005 18.8582 13.18 18.4182L4.87501 14.0182ZM13.18 1.13818L1.58876 7.27151C0.64001 7.77818 0.64001 9.11151 1.58876 9.61818L13.18 15.7515C14.005 16.1915 14.995 16.1915 15.82 15.7515L26.875 9.89818V17.7782C26.875 18.5115 27.4938 19.1115 28.25 19.1115C29.0063 19.1115 29.625 18.5115 29.625 17.7782V9.23151C29.625 8.73818 29.35 8.29818 28.91 8.05818L15.82 1.13818C15.4138 0.928076 14.9604 0.818176 14.5 0.818176C14.0396 0.818176 13.5863 0.928076 13.18 1.13818Z" fill="#0098A7"/>
</svg>
