<svg width="14" height="18" viewBox="0 0 14 18" fill="none" xmlns="http://www.w3.org/2000/svg">
<g clip-path="url(#clip0_2_71)">
<path d="M2.45 4.79487V7.24487H1.4C1.0287 7.24487 0.672601 7.39237 0.410051 7.65492C0.1475 7.91747 0 8.27357 0 8.64487L0 15.6449C0 16.0162 0.1475 16.3723 0.410051 16.6348C0.672601 16.8974 1.0287 17.0449 1.4 17.0449H12.6C12.9713 17.0449 13.3274 16.8974 13.5899 16.6348C13.8525 16.3723 14 16.0162 14 15.6449V8.64487C14 8.27357 13.8525 7.91747 13.5899 7.65492C13.3274 7.39237 12.9713 7.24487 12.6 7.24487H11.55V4.79487C11.55 3.58814 11.0706 2.43083 10.2173 1.57754C9.36405 0.724247 8.20673 0.244873 7 0.244873C5.79326 0.244873 4.63595 0.724247 3.78266 1.57754C2.92937 2.43083 2.45 3.58814 2.45 4.79487ZM4.2 7.24487V4.79487C4.2 4.05227 4.495 3.34008 5.0201 2.81497C5.5452 2.28987 6.25739 1.99487 7 1.99487C7.74261 1.99487 8.4548 2.28987 8.9799 2.81497C9.505 3.34008 9.8 4.05227 9.8 4.79487V7.24487H4.2ZM5.6 11.0949C5.60005 10.8523 5.66311 10.614 5.783 10.4031C5.90289 10.1923 6.07549 10.0162 6.28389 9.89218C6.4923 9.76812 6.72936 9.70033 6.97185 9.69546C7.21433 9.69058 7.45393 9.74878 7.66716 9.86436C7.88038 9.97994 8.05992 10.1489 8.18819 10.3548C8.31646 10.5606 8.38905 10.7962 8.39886 11.0386C8.40866 11.2809 8.35534 11.5216 8.24412 11.7372C8.1329 11.9527 7.96759 12.1356 7.7644 12.2681L7.7588 12.2716C7.7588 12.2716 7.8953 13.0976 8.0493 14.0706V14.0713C8.04911 14.2103 7.99382 14.3435 7.89553 14.4418C7.79725 14.5401 7.664 14.5954 7.525 14.5956H6.4736C6.3346 14.5954 6.20135 14.5401 6.10307 14.4418C6.00478 14.3435 5.94948 14.2103 5.9493 14.0713V14.0706L6.2398 12.2716C6.04316 12.1448 5.88145 11.9707 5.76943 11.7652C5.65742 11.5598 5.59869 11.3296 5.5986 11.0956L5.6 11.0949Z" fill="#9CB5B4"/>
</g>
<defs>
<clipPath id="clip0_2_71">
<rect width="14" height="16.8" fill="white" transform="translate(0 0.244873)"/>
</clipPath>
</defs>
</svg>
